<svg id="Layer_1" data-name="Layer 1" xmlns="http://www.w3.org/2000/svg" viewBox="0 0 108.81 122.88"><defs><style>.cls-1{fill-rule:evenodd;}</style></defs><title>download-files</title><path class="cls-1" d="M62.72,69.75H99.84a9,9,0,0,1,9,9V113.9a9,9,0,0,1-9,9H62.72a9,9,0,0,1-9-9V78.72a9,9,0,0,1,9-9ZM57.35,11.06,76.24,28.69H57.35V11.06ZM20,66.89A2,2,0,0,0,18.06,69,2,2,0,0,0,20,71.15h23.7V66.89Zm0,15.26a2,2,0,0,0-1.92,2.13A2,2,0,0,0,20,86.41h23.7V82.15Zm0-45.79A2,2,0,0,0,18,38.49,2,2,0,0,0,20,40.62H41.89a2,2,0,0,0,1.91-2.13,2,2,0,0,0-1.91-2.13ZM20,21.1a2,2,0,0,0-1.92,2.13A2,2,0,0,0,20,25.36H32a2,2,0,0,0,1.91-2.13A2,2,0,0,0,32,21.1Zm0,30.53A2,2,0,0,0,18,53.76,2,2,0,0,0,20,55.89H57A2.05,2.05,0,0,0,59,53.76,2,2,0,0,0,57,51.63H20Zm66.8-20.41a3.15,3.15,0,0,0-2.29-3l-27.83-27A3.09,3.09,0,0,0,54.21,0H5.66A5.63,5.63,0,0,0,0,5.65v96.78a5.63,5.63,0,0,0,1.65,4,5.71,5.71,0,0,0,4,1.65h4.81V116a7,7,0,0,0,6.92,6.92H43.74V117H17.35a1,1,0,0,1-.7-.28,1,1,0,0,1-.28-.7v-7.89H43.76v-6.31H6.32V6.29H51V31.83A3.17,3.17,0,0,0,54.21,35H80.44V60.2h6.31V42.44h7.81a1,1,0,0,1,.71.28,1,1,0,0,1,.28.7V60.21h6V43.42a6.91,6.91,0,0,0-2-4.88,6.82,6.82,0,0,0-4.88-2H86.75V31.22Zm6.16,63.41a2.34,2.34,0,0,1,2,.93c1,1.55-.38,3.08-1.36,4.16-2.78,3-9.08,8.58-10.45,10.19a2.26,2.26,0,0,1-3.55,0c-1.42-1.66-8.06-7.51-10.7-10.48-.92-1-2-2.44-1.1-3.87a2.34,2.34,0,0,1,2-.93h4.94V85.77A2.8,2.8,0,0,1,77.44,83H85.2A2.8,2.8,0,0,1,88,85.77v8.86Z"/></svg>