<svg id="Layer_1" data-name="Layer 1" xmlns="http://www.w3.org/2000/svg" viewBox="0 0 105.68 122.88"><defs><style>.cls-1{fill-rule:evenodd;}</style></defs><title>save-all-files</title><path class="cls-1" d="M82.05,27.39a3,3,0,0,1,2.23,2.94v5.14H91.9a6.76,6.76,0,0,1,6.72,6.71V58.49H92.83V42.18a.94.94,0,0,0-1-1H84.28V58.48H78.14V34H52.66a3.09,3.09,0,0,1-3.08-3.09V6.11H6.14V98.87H42.51V105H15.9v7.66a1,1,0,0,0,.27.69,1,1,0,0,0,.69.27H42.5v5.76H16.89a6.76,6.76,0,0,1-6.72-6.72V105H5.49A5.48,5.48,0,0,1,0,99.51v-94A5.5,5.5,0,0,1,5.49,0H52.66A3,3,0,0,1,55,1.12l27,26.27Zm17.42,91H96.89a.3.3,0,0,1-.3-.31V97.8a2,2,0,0,0-.21-.94l-.09-.13a1.06,1.06,0,0,0-.09-.11h0a1.17,1.17,0,0,0-.48-.29l-.1,0h0a2.73,2.73,0,0,0-.59-.07H67.47a1.82,1.82,0,0,0-.92.21h0l-.11.07,0,0-.11.1h0a1.65,1.65,0,0,0-.38,1.19v20.27h0a.31.31,0,0,1-.31.31h-3a.31.31,0,0,1-.21-.09l-5.1-5.11a.32.32,0,0,1-.12-.25V73.88a1.34,1.34,0,0,1,1.49-1.53H69.21a.31.31,0,0,1,.31.31V84.1a3.07,3.07,0,0,0,3.08,3.14H92.83A3.12,3.12,0,0,0,96,84.09V72.65a.31.31,0,0,1,.31-.31h3.15A1.35,1.35,0,0,1,101,73.82v43a1.33,1.33,0,0,1-1.47,1.53h0ZM75.66,104.2H87.84a1.86,1.86,0,0,1,1.85,1.85h0a1.87,1.87,0,0,1-1.85,1.85H75.66a1.86,1.86,0,0,1-1.84-1.85h0a1.85,1.85,0,0,1,1.84-1.85Zm0,7.44H87.84a1.87,1.87,0,0,1,1.85,1.85h0a1.86,1.86,0,0,1-1.85,1.85H75.66a1.85,1.85,0,0,1-1.84-1.85h0a1.86,1.86,0,0,1,1.84-1.85ZM73.33,73.09H92V82a1.69,1.69,0,0,1-1.69,1.69H75A1.69,1.69,0,0,1,73.33,82V73.09Zm-3.06,27H92.72a.28.28,0,0,1,.27.27v17.8a.28.28,0,0,1-.27.27H70.27a.28.28,0,0,1-.28-.27V100.32a.28.28,0,0,1,.28-.28ZM56.64,67.84H102a3.68,3.68,0,0,1,3.72,3.72v47.56a3.72,3.72,0,0,1-3.72,3.76H59.87l-.1-.11L53,116l-.44-.29V71.55a3.86,3.86,0,0,1,4.1-3.71ZM19.39,50.15a2,2,0,0,0-1.87,2.07,2,2,0,0,0,1.87,2.07h36a2,2,0,0,0,1.86-2.07,2,2,0,0,0-1.86-2.07Zm0,14.83a2,2,0,0,0-1.86,2.07,2,2,0,0,0,1.86,2.07h23V65Zm0,14.83a2,2,0,0,0-1.86,2.07A2,2,0,0,0,19.41,84h23V79.81Zm0-44.49a2,2,0,0,0-1.87,2.07,2,2,0,0,0,1.87,2.07H40.7a2,2,0,0,0,1.85-2.07,2,2,0,0,0-1.85-2.07Zm0-14.82a2,2,0,0,0-1.86,2.07,2,2,0,0,0,1.86,2.06H31.12A2,2,0,0,0,33,22.57a2,2,0,0,0-1.86-2.07Zm36.31-9.76L74.07,27.87H55.72V10.74Z"/></svg>